# xmcd CD database file
#
# Track frame offsets:
#	150
#	8115
#	23782
#	43960
#	54577
#	66427
#	89400
#	134732
#	147600
#	168170
#	186600
#	206432
#	232112
#	246020
#	262687
#	281162
#	300570
#	318950
#	340000
#
# Disc length: 4674 seconds
#
# Revision: 1
# Processed by: cddbd v1.5PL3 Copyright (c) Steve Scherf et al.
# Submitted via: CDex 1.51
#
DISCID=1f124013
DTITLE=Various Artist - Classical 2001 -CD2(JPN)-
DYEAR=2001
DGENRE=Classical
TTITLE0=ツァラトゥストラはかく語りき−Ｒ．シュトラウス
TTITLE1=コタヒタンガ
TTITLE2=ネッラ・ファンタジア
TTITLE3=プレリュード第１番（Ｊ．Ｓ．バッハ）
TTITLE4=衣装をつけろ（歌劇『道化師』から）−レオンカヴァッロ
TTITLE5=ピアノ協奏曲第３番：アレグロ・マ・ノン・タント−ラフマニノフ（抜粋）
TTITLE6=アダージョ（バーバー）
TTITLE7=映画『ブレイブハート』からメインテーマ−ホーナー
TTITLE8=トゥナイト（『ウェスト・サイド・ストーリー』から）−バーンスタイン
TTITLE9=愛らしい乙女よ（歌劇『ラ・ボエーム』から）−プッチーニ
TTITLE10=バイレロ−カントルーブ／編曲：グレイグ・レオン
TTITLE11=ミゼレーレ−アレグリ（抜粋）
TTITLE12=グレゴリオ聖歌：グロリア
TTITLE13=セカンド・ワルツ−ショスタコーヴィチ
TTITLE14=清らかな女神よ（歌劇『ノルマ』から）−ベルリーニ
TTITLE15=サマータイム（歌劇『ポーギーとベス』から）−ガーシュウィン
TTITLE16=オール・ザット・ジャズ（ミュージカル『シカゴ』から）−カンダー
TTITLE17=マイ・ハート・ウィル・ゴー・オン（映画『タイタニック』のテーマ）−ホーナー
TTITLE18=女心の歌（歌劇『リゴレット』から）−ヴェルディ
EXTD=YEAR: 2001
EXTT0=
EXTT1=
EXTT2=
EXTT3=
EXTT4=
EXTT5=
EXTT6=
EXTT7=
EXTT8=
EXTT9=
EXTT10=
EXTT11=
EXTT12=
EXTT13=
EXTT14=
EXTT15=
EXTT16=
EXTT17=
EXTT18=
PLAYORDER=
